<svg xmlns="http://www.w3.org/2000/svg" xmlns:xlink="http://www.w3.org/1999/xlink" version="1.1" x="0px" y="0px" viewBox="0 0 512 640" style="enable-background:new 0 0 512 512;" xml:space="preserve"><style type="text/css">
	.st0{fill:#fff;}
</style><g ><path class="st0"  d="M385.28,184.81c0,14.67-6.88,26.92-13.65,36.02c7.49,5.33,16.58,8.54,26.45,8.54c9.87,0,18.96-3.21,26.44-8.54   c-6.77-9.1-13.65-21.35-13.65-36.02c0-14.44,7.18-28.15,14.04-38.13c-7.56-5.51-16.78-8.86-26.83-8.86   c-10.05,0-19.28,3.35-26.84,8.86C378.11,156.64,385.28,170.33,385.28,184.81z"/><path class="st0" d="M425.7,184.81c0,9.71,4.37,18.31,9.43,25.45c5.43-7.53,8.73-16.69,8.73-26.67c0-9.75-3.12-18.75-8.33-26.18   C430.47,165.25,425.7,175.1,425.7,184.81z"/><path class="st0" d="M370.46,184.81c0-9.74-4.77-19.58-9.82-27.4c-5.22,7.43-8.34,16.44-8.34,26.19c0,9.97,3.29,19.14,8.73,26.67   C366.09,203.12,370.46,194.52,370.46,184.81z"/><path class="st0" d="M174.67,158.63L90.95,74.91c-1.39-1.39-2.17-3.28-2.17-5.24c0-1.97,0.78-3.85,2.17-5.24l1.48-1.47L82,52.54   L52.55,82l10.41,10.42l1.48-1.47c1.45-1.45,3.34-2.17,5.24-2.17s3.79,0.72,5.24,2.17l83.71,83.72L174.67,158.63z"/><path class="st0" d="M384,394.48L245.97,256.46c-2.9-2.9-2.9-7.59,0-10.48c2.9-2.9,7.59-2.9,10.48,0L394.48,384l57.09,1.42   L220.46,154.31l-31.27,10.77l-24.11,24.1l-10.76,31.27l231.11,231.11L384,394.48z"/><path class="st0" d="M398.94,398.95l1.5,59.57c25.15-12.47,45.62-32.94,58.08-58.08L398.94,398.95z"/><path d="M476.83,396.01c0.04-0.11-0.01-0.23,0.03-0.35c0.24-0.7,0.47-1.4,0.49-2.18c0.01-0.41-0.15-0.76-0.2-1.16   c-0.04-0.33-0.08-0.62-0.16-0.93c-0.34-1.24-0.89-2.38-1.77-3.28c-0.02-0.02-0.02-0.05-0.03-0.06L227.67,140.55   c-2.01-2.01-4.95-2.69-7.66-1.77l-32.89,11.33l-80.45-80.44l1.48-1.47c1.39-1.39,2.17-3.27,2.17-5.24s-0.78-3.85-2.17-5.24   l-20.91-20.9c-2.9-2.9-7.59-2.9-10.48,0L36.82,76.76c-2.9,2.9-2.9,7.59,0,10.48l20.89,20.9c2.9,2.9,7.59,2.9,10.48,0l1.48-1.47   l80.44,80.44l-11.32,32.9c-0.93,2.68-0.23,5.65,1.77,7.65l247.51,247.51c0.01,0.01,0.03,0.01,0.04,0.03   c0.68,0.67,1.49,1.22,2.38,1.59c0.9,0.37,1.85,0.56,2.82,0.56c0.06,0,0.12,0,0.19,0c0.33-0.01,0.6-0.16,0.91-0.21   c0.54-0.08,1.1-0.1,1.62-0.31c0.1-0.04,0.18-0.09,0.28-0.13c0.04-0.02,0.08-0.03,0.12-0.05c36.53-14.53,65.75-43.74,80.23-80.26   c0.03-0.06,0.05-0.12,0.08-0.18C476.76,396.15,476.8,396.09,476.83,396.01z M69.68,88.78c-1.9,0-3.79,0.72-5.24,2.17l-1.48,1.47   L52.55,82L82,52.54l10.43,10.42l-1.48,1.47c-1.39,1.39-2.17,3.27-2.17,5.24c0,1.96,0.78,3.85,2.17,5.24l83.72,83.72l-16.04,16.04   L74.92,90.95C73.47,89.5,71.58,88.78,69.68,88.78z M165.08,189.18l24.11-24.1l31.27-10.77l231.12,231.11L394.48,384L256.46,245.97   c-2.9-2.9-7.59-2.9-10.48,0c-2.9,2.9-2.9,7.59,0,10.48L384,394.48l1.43,57.09L154.31,220.46L165.08,189.18z M400.44,458.51   l-1.5-59.57l59.58,1.49C446.06,425.57,425.58,446.04,400.44,458.51z"/><path d="M398.08,244.2c33.42,0,60.6-27.19,60.6-60.61c0-33.41-27.18-60.6-60.6-60.6s-60.61,27.19-60.61,60.6   C337.47,217.01,364.66,244.2,398.08,244.2z M443.86,183.59c0,9.97-3.29,19.14-8.73,26.67c-5.06-7.14-9.43-15.74-9.43-25.45   c0-9.71,4.78-19.56,9.83-27.4C440.74,164.84,443.86,173.85,443.86,183.59z M424.91,146.68c-6.86,9.98-14.04,23.68-14.04,38.13   c0,14.67,6.88,26.92,13.65,36.02c-7.48,5.33-16.57,8.54-26.44,8.54c-9.87,0-18.97-3.21-26.45-8.54   c6.78-9.1,13.65-21.35,13.65-36.02c0-14.47-7.18-28.17-14.04-38.13c7.56-5.51,16.78-8.86,26.84-8.86   C408.13,137.82,417.35,141.17,424.91,146.68z M360.63,157.4c5.06,7.82,9.82,17.67,9.82,27.4c0,9.71-4.37,18.31-9.43,25.45   c-5.43-7.53-8.73-16.69-8.73-26.67C352.3,173.84,355.42,164.84,360.63,157.4z"/></svg>