<svg xmlns="http://www.w3.org/2000/svg" version="1.1" viewBox="-5.0 -10.0 110.0 135.0">
 <path d="m63.488 20.594c0.49609 0 0.96094 0.12891 1.3594 0.36328l0.007813 0.003907c8.1172 4.1641 14.262 11.629 16.656 20.629 0.046875 0.20312 0.074219 0.41406 0.074219 0.63281 0 1.4961-1.2148 2.7109-2.7109 2.7109-1.2344 0-2.2812-0.83203-2.6016-1.9648h-0.003907c-2.0117-7.5547-7.1953-13.812-14.039-17.262-0.86328-0.45312-1.4531-1.3594-1.4531-2.4023 0-1.4961 1.2109-2.707 2.7031-2.707h0.007812zm-17.078 15.523c-0.76953 0.19922-1.3828 0.45312-1.8398 0.76172-0.71484 0.48438-1.1719 0.95703-1.3906 1.4219-0.20703 0.44531-0.31641 0.78125-0.31641 1.0117v3.5312c0 0.19141 0.14453 0.40625 0.43359 0.63672 0.30859 0.25 0.66016 0.46875 1.043 0.66797 0.62109 0.32031 1.3125 0.64062 2.0781 0.94141zm33.168 11.711c1.4961 0 2.707 1.2148 2.707 2.7109 0 1.4961-1.2109 2.707-2.707 2.707s-2.707-1.2109-2.707-2.707c0-1.4961 1.2109-2.7109 2.707-2.7109zm-25.988 7.082-0.011719 8.957c0.76953-0.19531 1.3711-0.45313 1.8203-0.75781 0.71094-0.48828 1.1719-0.95703 1.3867-1.418 0.23047-0.48438 0.34766-0.83984 0.34766-1.0742v-3.4727c0-0.19141-0.15625-0.39844-0.46094-0.63672-0.3125-0.24609-0.64844-0.47266-1.0156-0.66406-0.61328-0.32812-1.3008-0.63672-2.0664-0.92969zm-3.5898-32.461c1.9766 0 3.5781 1.6016 3.5781 3.582l0.007813 2.8203c2.0977 0.33594 3.8008 0.90234 5.1133 1.6875 1.6172 0.96875 2.7812 1.9883 3.5312 3.043 0.62109 0.875 1.0977 1.707 1.3867 2.5156 0.29297 0.8125 0.47656 1.4961 0.55078 2.0547 0.078125 0.58203 0.11719 0.95703 0.11719 1.1328v1.418c0 0.98438-0.34766 1.8242-1.043 2.5156-0.71484 0.71484-1.5625 1.0742-2.5469 1.0742-0.98437 0-1.8281-0.34375-2.5195-1.043-0.69922-0.71094-1.043-1.5625-1.043-2.5469v-1.332c0-0.23438-0.10156-0.58203-0.31641-1.043-0.22656-0.48438-0.69141-0.96875-1.3906-1.4492-0.45312-0.30859-1.0664-0.55859-1.832-0.75391h-0.007812v11.211c1.9688 0.62891 3.8125 1.3359 5.4883 2.2227 1.4258 0.75781 2.4844 1.6367 3.2422 2.5195 0.76562 0.89453 1.2969 1.7656 1.5625 2.6367 0.27344 0.88672 0.40625 1.6953 0.40625 2.4297v3.5625c0 0.17188-0.039062 0.53906-0.11719 1.0977-0.078125 0.57812-0.25781 1.2734-0.55078 2.0859-0.28906 0.80859-0.76563 1.6406-1.3867 2.5195-0.74609 1.0508-1.8984 2.0781-3.5039 3.0391-1.3281 0.79297-3.0469 1.3555-5.1562 1.6953l0.007813 2.8164c0 1.9766-1.6016 3.5781-3.5781 3.5781-1.9805 0-3.582-1.6016-3.582-3.5781l0.007812-2.8164c-2.1016-0.33594-3.8086-0.90625-5.125-1.6953-1.6211-0.96875-2.7852-1.9883-3.5312-3.0391-0.625-0.87891-1.0938-1.7148-1.3906-2.5195-0.30078-0.81641-0.48438-1.4961-0.55078-2.0547-0.070313-0.58203-0.11719-0.95703-0.11719-1.1289v-1.4219c0-0.98438 0.35156-1.8164 1.043-2.5156 0.69922-0.71094 1.5352-1.0703 2.5195-1.0703 0.98437 0 1.8242 0.34375 2.5195 1.0391 0.71094 0.71484 1.0703 1.5625 1.0703 2.5469v1.3906c0 0.23047 0.10938 0.56641 0.31641 1.0156 0.21875 0.46094 0.67578 0.93359 1.3906 1.418 0.46094 0.30859 1.0742 0.56641 1.8477 0.76562l0.007812-11.211c-1.9648-0.63281-3.8164-1.3477-5.5039-2.2344-1.4414-0.76172-2.5156-1.6328-3.2695-2.5195-0.75391-0.88672-1.2656-1.7656-1.5352-2.6328-0.27344-0.88672-0.40625-1.6992-0.40625-2.4336v-3.5586c0-0.17578 0.023437-0.54297 0.089843-1.1016 0.066407-0.58203 0.25-1.2773 0.54688-2.0859 0.30078-0.8125 0.79688-1.6406 1.4219-2.5156 0.74609-1.0547 1.8984-2.082 3.5-3.043 1.3281-0.79297 3.043-1.3516 5.1406-1.6875l0.007813-2.8203c0-1.9766 1.6016-3.5781 3.5781-3.5781h0.003906zm0-12.973c-22.379 0-40.52 18.141-40.52 40.52 0 22.375 18.141 40.516 40.52 40.516 22.375 0 40.516-18.141 40.516-40.516 0-22.379-18.141-40.52-40.516-40.52z"/>
</svg>